<?xml version="1.0" encoding="utf-8"?>
<!-- Generator: Adobe Illustrator 27.5.0, SVG Export Plug-In . SVG Version: 6.00 Build 0)  -->
<svg version="1.1" xmlns="http://www.w3.org/2000/svg" xmlns:xlink="http://www.w3.org/1999/xlink" x="0px" y="0px"
	 viewBox="0 0 750 500" style="enable-background:new 0 0 750 500;" xml:space="preserve">
<g id="BACKGROUND">
	<rect style="fill:#EA98E3;" width="750" height="500"/>
</g>
<g id="OBJECTS">
	<g>
		<defs>
			<rect id="SVGID_1_" width="750" height="500"/>
		</defs>
		<clipPath id="SVGID_00000043428755884054397840000009716000135495659392_">
			<use xlink:href="#SVGID_1_"  style="overflow:visible;"/>
		</clipPath>
		<g style="clip-path:url(#SVGID_00000043428755884054397840000009716000135495659392_);">
			<path style="fill:#FFFFFF;" d="M490.472,459.053h84.03v-84.03C528.094,375.023,490.472,412.645,490.472,459.053z"/>
			<path style="fill:#59C6D8;" d="M574.502,375.023v84.03h84.03C658.532,412.645,620.911,375.023,574.502,375.023z"/>
		</g>
		
			<ellipse transform="matrix(0.1602 -0.9871 0.9871 0.1602 320.8018 674.5941)" style="clip-path:url(#SVGID_00000043428755884054397840000009716000135495659392_);fill:#3650E9;" cx="556.846" cy="148.768" rx="84.138" ry="84.138"/>
		<g style="clip-path:url(#SVGID_00000043428755884054397840000009716000135495659392_);">
			<path style="fill:#F28D00;" d="M186.477,298.068c-46.468,0-84.138,37.67-84.138,84.138h40c0-24.338,19.8-44.138,44.138-44.138
				c24.338,0,44.138,19.8,44.138,44.138h40C270.615,335.738,232.945,298.068,186.477,298.068z"/>
		</g>
		<g style="clip-path:url(#SVGID_00000043428755884054397840000009716000135495659392_);">
			<path style="fill:#F6D400;" d="M429.88,123.21c46.468,0,84.138-37.67,84.138-84.138h-40c0,24.338-19.8,44.138-44.138,44.138
				c-24.338,0-44.138-19.8-44.138-44.138h-40C345.742,85.54,383.412,123.21,429.88,123.21z"/>
		</g>
		
			<circle style="clip-path:url(#SVGID_00000043428755884054397840000009716000135495659392_);fill:#59C6D8;" cx="695.728" cy="280.636" r="43.322"/>
		
			<circle style="clip-path:url(#SVGID_00000043428755884054397840000009716000135495659392_);fill:#3650E9;" cx="179.538" cy="109.853" r="43.322"/>
		<path style="clip-path:url(#SVGID_00000043428755884054397840000009716000135495659392_);fill:#F6D400;" d="M39.015,354.659
			c46.409,0,84.03,37.621,84.03,84.03c0,46.409-37.621,84.03-84.03,84.03V354.659z"/>
		<path style="clip-path:url(#SVGID_00000043428755884054397840000009716000135495659392_);fill:#59C6D8;" d="M0,78.626
			c0-26.207,21.245-47.452,47.452-47.452s47.452,21.245,47.452,47.452H0z"/>
		<path style="clip-path:url(#SVGID_00000043428755884054397840000009716000135495659392_);fill:#59C6D8;" d="M0,126.077
			c0-26.207,21.245-47.452,47.452-47.452s47.452,21.245,47.452,47.452H0z"/>
		
			<circle style="clip-path:url(#SVGID_00000043428755884054397840000009716000135495659392_);fill:#EE27A4;" cx="658.532" cy="18.303" r="43.322"/>
		<path style="clip-path:url(#SVGID_00000043428755884054397840000009716000135495659392_);fill:#F28D00;" d="M636.59,392.035
			L636.59,392.035c-20.335,0-36.82-16.485-36.82-36.82v-129.19c0-20.335,16.485-36.82,36.82-36.82l0,0
			c20.335,0,36.82,16.485,36.82,36.82v129.19C673.41,375.55,656.925,392.035,636.59,392.035z"/>
		<path style="clip-path:url(#SVGID_00000043428755884054397840000009716000135495659392_);fill:#EE27A4;" d="M78.123,165.113
			L78.123,165.113c0-20.335,16.485-36.82,36.82-36.82h129.19c20.335,0,36.82,16.485,36.82,36.82v0
			c0,20.335-16.485,36.82-36.82,36.82h-129.19C94.608,201.932,78.123,185.447,78.123,165.113z"/>
		<g style="clip-path:url(#SVGID_00000043428755884054397840000009716000135495659392_);">
			
				<rect x="700.594" y="77.817" transform="matrix(0.7071 -0.7071 0.7071 0.7071 145.5962 529.2393)" style="fill:#FFFFFF;" width="22.106" height="22.106"/>
			
				<rect x="700.594" y="130.507" transform="matrix(0.7071 -0.7071 0.7071 0.7071 108.3386 544.6719)" style="fill:#FFFFFF;" width="22.106" height="22.106"/>
			
				<rect x="700.594" y="183.197" transform="matrix(0.7071 -0.7071 0.7071 0.7071 71.0821 560.1066)" style="fill:#FFFFFF;" width="22.106" height="22.106"/>
		</g>
		<polygon style="clip-path:url(#SVGID_00000043428755884054397840000009716000135495659392_);fill:#EE27A4;" points="
			529.418,438.01 389.38,438.01 389.38,297.972 		"/>
		<g style="clip-path:url(#SVGID_00000043428755884054397840000009716000135495659392_);">
			<polygon style="fill:#FFFFFF;" points="345.358,117.361 267.068,117.361 345.358,39.071 			"/>
			<polygon style="fill:#F28D00;" points="306.213,78.216 227.924,78.216 306.213,-0.073 			"/>
		</g>
		
			<circle style="clip-path:url(#SVGID_00000043428755884054397840000009716000135495659392_);fill:#3650E9;" cx="280.738" cy="505.575" r="94.262"/>
		<g style="clip-path:url(#SVGID_00000043428755884054397840000009716000135495659392_);">
			<rect x="160.937" y="185.395" style="fill:#FFFFFF;" width="36.549" height="36.549"/>
			<rect x="124.238" y="222.094" style="fill:#FFFFFF;" width="36.549" height="36.549"/>
			<rect x="87.54" y="258.792" style="fill:#FFFFFF;" width="36.549" height="36.549"/>
		</g>
		
			<rect x="683.372" y="18.029" style="clip-path:url(#SVGID_00000043428755884054397840000009716000135495659392_);fill:none;stroke:#000000;stroke-miterlimit:10;" width="36.549" height="36.549"/>
		
			<rect x="646.674" y="54.727" style="clip-path:url(#SVGID_00000043428755884054397840000009716000135495659392_);fill:none;stroke:#000000;stroke-miterlimit:10;" width="36.549" height="36.549"/>
		
			<rect y="209.881" style="clip-path:url(#SVGID_00000043428755884054397840000009716000135495659392_);fill:#F28D00;" width="124.089" height="27.433"/>
		
			<rect x="643.277" y="424.294" transform="matrix(-1.836970e-16 1 -1 -1.836970e-16 1143.3313 -267.3114)" style="clip-path:url(#SVGID_00000043428755884054397840000009716000135495659392_);fill:#F6D400;" width="124.089" height="27.432"/>
		
			<ellipse transform="matrix(0.158 -0.9874 0.9874 0.158 -150.6789 645.9112)" style="clip-path:url(#SVGID_00000043428755884054397840000009716000135495659392_);fill:#59C6D8;" cx="303.42" cy="411.313" rx="43.322" ry="43.322"/>
		
			<path style="clip-path:url(#SVGID_00000043428755884054397840000009716000135495659392_);fill:none;stroke:#000000;stroke-miterlimit:10;" d="
			M91.345,117.361L91.345,117.361c-24.242,0-43.894-19.652-43.894-43.894V-9.788h87.787v83.255
			C135.239,97.709,115.587,117.361,91.345,117.361z"/>
		<g style="clip-path:url(#SVGID_00000043428755884054397840000009716000135495659392_);">
			<line style="fill:none;stroke:#000000;stroke-miterlimit:10;" x1="543.7" y1="280.636" x2="543.7" y2="407.208"/>
			<line style="fill:none;stroke:#000000;stroke-miterlimit:10;" x1="606.986" y1="343.922" x2="480.414" y2="343.922"/>
			<line style="fill:none;stroke:#000000;stroke-miterlimit:10;" x1="588.45" y1="299.172" x2="498.95" y2="388.672"/>
			<line style="fill:none;stroke:#000000;stroke-miterlimit:10;" x1="588.45" y1="388.672" x2="498.95" y2="299.172"/>
		</g>
		
			<polygon style="clip-path:url(#SVGID_00000043428755884054397840000009716000135495659392_);fill:none;stroke:#000000;stroke-miterlimit:10;" points="
			70.145,413.526 14.941,413.526 14.941,358.322 		"/>
		
			<polygon style="clip-path:url(#SVGID_00000043428755884054397840000009716000135495659392_);fill:none;stroke:#000000;stroke-miterlimit:10;" points="
			124.689,468.07 69.485,468.07 69.485,412.866 		"/>
		
			<circle style="clip-path:url(#SVGID_00000043428755884054397840000009716000135495659392_);fill:none;stroke:#000000;stroke-miterlimit:10;" cx="231.532" cy="295.785" r="25.978"/>
		
			<path style="clip-path:url(#SVGID_00000043428755884054397840000009716000135495659392_);fill:none;stroke:#000000;stroke-miterlimit:10;" d="
			M572.596,102.411h-90.004v0c0-49.708,40.296-90.004,90.004-90.004h0V102.411z"/>
		
			<line style="clip-path:url(#SVGID_00000043428755884054397840000009716000135495659392_);fill:none;stroke:#000000;stroke-miterlimit:10;" x1="735.299" y1="382.206" x2="611.521" y2="505.984"/>
		
			<line style="clip-path:url(#SVGID_00000043428755884054397840000009716000135495659392_);fill:none;stroke:#000000;stroke-miterlimit:10;" x1="491.769" y1="-66.369" x2="367.991" y2="57.409"/>
		
			<line style="clip-path:url(#SVGID_00000043428755884054397840000009716000135495659392_);fill:none;stroke:#000000;stroke-miterlimit:10;" x1="81.03" y1="178.479" x2="-42.748" y2="302.257"/>
		
			<path style="clip-path:url(#SVGID_00000043428755884054397840000009716000135495659392_);fill:none;stroke:#000000;stroke-miterlimit:10;" d="
			M429.88,212.932c0-26.207,21.245-47.452,47.452-47.452c26.207,0,47.452,21.245,47.452,47.452H429.88z"/>
		
			<rect x="358.764" y="140.955" transform="matrix(0.7071 0.7071 -0.7071 0.7071 220.9856 -219.1249)" style="clip-path:url(#SVGID_00000043428755884054397840000009716000135495659392_);fill:#59C6D8;" width="32.471" height="32.471"/>
	</g>
</g>
</svg>
